<svg xmlns="http://www.w3.org/2000/svg" xmlns:xlink="http://www.w3.org/1999/xlink" fill="none" version="1.1" width="120" height="120" viewBox="0 0 120 120"><defs><filter id="master_svg0_47_03991" filterUnits="objectBoundingBox" color-interpolation-filters="sRGB" x="0" y="0" width="1.142857129138615" height="1.142857129138615"><feFlood flood-opacity="0" result="BackgroundImageFix"/><feColorMatrix in="SourceAlpha" type="matrix" values="0 0 0 0 0 0 0 0 0 0 0 0 0 0 0 0 0 0 127 0"/><feOffset dy="6.857142925262451" dx="6.857142925262451"/><feGaussianBlur stdDeviation="0.8571428656578064"/><feColorMatrix type="matrix" values="0 0 0 0 0 0 0 0 0 0 0 0 0 0 0 0 0 0 0.10000000149011612 0"/><feBlend mode="normal" in2="BackgroundImageFix" result="effect1_dropShadow"/><feBlend mode="normal" in="SourceGraphic" in2="effect1_dropShadow" result="shape"/></filter></defs><g><g><g><rect x="0" y="0" width="120" height="120" rx="13.714285850524902" fill="#1890FF" fill-opacity="1"/></g><g filter="url(#master_svg0_47_03991)"><g><path d="M30.69767,24C30.69767,24,89.3023,24,89.3023,24C93.0014,24,96,26.99865,96,30.69767C96,30.69767,96,89.3023,96,89.3023C96,93.0014,93.0014,96,89.3023,96C89.3023,96,30.69767,96,30.69767,96C26.99865,96,24,93.0014,24,89.3023C24,89.3023,24,30.69767,24,30.69767C24,26.99865,26.99865,24,30.69767,24Z" fill="#FFFFFF" fill-opacity="1"/></g><g><g><path d="M37.14501953125,85.9522640625C37.14501953125,85.9522640625,43.94148953125,85.9522640625,43.94148953125,85.9522640625C48.44481953125,85.9522640625,51.73251953125,84.0183640625,51.73251953125,79.9846640625C51.73251953125,77.2218640625,50.04721953125,75.6470640625,47.72651953125,75.1497940625C47.72651953125,75.1497940625,47.72651953125,75.0116540625,47.72651953125,75.0116540625C49.54991953125,74.4038440625,50.62741953125,72.5527740625,50.62741953125,70.61881406250001C50.62741953125,66.9443040625,47.616019531250004,65.6181640625,43.44417953125,65.6181640625C43.44417953125,65.6181640625,37.14501953125,65.6181640625,37.14501953125,65.6181640625C37.14501953125,65.6181640625,37.14501953125,85.9522640625,37.14501953125,85.9522640625ZM40.34985953125,74.0999340625C40.34985953125,74.0999340625,40.34985953125,68.1046740625,40.34985953125,68.1046740625C40.34985953125,68.1046740625,43.167909531250004,68.1046740625,43.167909531250004,68.1046740625C46.041209531250004,68.1046740625,47.47781953125,68.90588406250001,47.47781953125,71.0332340625C47.47781953125,72.9395640625,46.17934953125,74.0999340625,43.08501953125,74.0999340625C43.08501953125,74.0999340625,40.34985953125,74.0999340625,40.34985953125,74.0999340625ZM40.34985953125,83.4381640625C40.34985953125,83.4381640625,40.34985953125,76.5311640625,40.34985953125,76.5311640625C40.34985953125,76.5311640625,43.58231953125,76.5311640625,43.58231953125,76.5311640625C46.81478953125,76.5311640625,48.58301953125,77.5257640625,48.58301953125,79.8188640625C48.58301953125,82.3054640625,46.759529531249996,83.4381640625,43.58231953125,83.4381640625C43.58231953125,83.4381640625,40.34985953125,83.4381640625,40.34985953125,83.4381640625Z" fill="#1890FF" fill-opacity="1"/></g><g><g transform="matrix(0.7071070075035095,0.7071065306663513,-0.7071070075035095,0.7071065306663513,66.29382612672174,-28.111193614592537)"><path d="M67.08016586303711,65.96811389923096C67.08016586303711,65.96811389923096,89.4754658630371,65.96811389923096,89.4754658630371,65.96811389923096C89.4754658630371,65.96811389923096,89.4754658630371,69.56811389923095,89.4754658630371,69.56811389923095C89.4754658630371,69.56811389923095,67.08016586303711,69.56811389923095,67.08016586303711,69.56811389923095C67.08016586303711,69.56811389923095,67.08016586303711,65.96811389923096,67.08016586303711,65.96811389923096Z" fill="#1890FF" fill-opacity="1"/></g><g transform="matrix(-0.7071065902709961,0.7071069478988647,-0.7071065902709961,-0.7071069478988647,189.86446781376344,58.02615082587943)"><path d="M82.91463851928711,68.33530139923096C82.91463851928711,68.33530139923096,105.3099385192871,68.33530139923096,105.3099385192871,68.33530139923096C105.3099385192871,68.33530139923096,105.3099385192871,71.93530139923095,105.3099385192871,71.93530139923095C105.3099385192871,71.93530139923095,82.91463851928711,71.93530139923095,82.91463851928711,71.93530139923095C82.91463851928711,71.93530139923095,82.91463851928711,68.33530139923096,82.91463851928711,68.33530139923096Z" fill="#1890FF" fill-opacity="1"/></g></g></g><g><g><path d="M41.049344375000004,47.498324609375004C41.049344375000004,47.498324609375004,41.878174375,44.763204609375,41.878174375,44.763204609375C42.541244375,42.552974609375,43.176684375,40.315104609375,43.756874375,37.994364609375C43.756874375,37.994364609375,43.867384375,37.994364609375,43.867384375,37.994364609375C44.502824375,40.287484609375,45.110644375,42.552974609375,45.801334374999996,44.763204609375C45.801334374999996,44.763204609375,46.602534375,47.498324609375004,46.602534375,47.498324609375004C46.602534375,47.498324609375004,41.049344375000004,47.498324609375004,41.049344375000004,47.498324609375004ZM49.089034375,55.814324609375C49.089034375,55.814324609375,52.487334375,55.814324609375,52.487334375,55.814324609375C52.487334375,55.814324609375,45.746134375,35.480224609375,45.746134375,35.480224609375C45.746134375,35.480224609375,42.043944375,35.480224609375,42.043944375,35.480224609375C42.043944375,35.480224609375,35.302734375,55.814324609375,35.302734375,55.814324609375C35.302734375,55.814324609375,38.562824375,55.814324609375,38.562824375,55.814324609375C38.562824375,55.814324609375,40.303384375,50.012524609375,40.303384375,50.012524609375C40.303384375,50.012524609375,47.376134375,50.012524609375,47.376134375,50.012524609375C47.376134375,50.012524609375,49.089034375,55.814324609375,49.089034375,55.814324609375Z" fill="#1890FF" fill-opacity="1"/></g><g><g transform="matrix(0.7071067094802856,0.7071068286895752,-0.7071067094802856,0.7071068286895752,49.23698788967948,-33.239806762076)"><path d="M64.74248313903809,42.81439924240112C64.74248313903809,42.81439924240112,75.61778313903808,42.81439924240112,75.61778313903808,42.81439924240112C75.61778313903808,42.81439924240112,75.61778313903808,46.414399242401124,75.61778313903808,46.414399242401124C75.61778313903808,46.414399242401124,64.74248313903809,46.414399242401124,64.74248313903809,46.414399242401124C64.74248313903809,46.414399242401124,64.74248313903809,42.81439924240112,64.74248313903809,42.81439924240112Z" fill="#1890FF" fill-opacity="1"/></g><g transform="matrix(-0.7071070671081543,0.7071064710617065,-0.7071070671081543,-0.7071064710617065,170.50603638478174,8.090316364589228)"><path d="M83.57744407653809,39.35810041427612C83.57744407653809,39.35810041427612,101.99604407653808,39.35810041427612,101.99604407653808,39.35810041427612C101.99604407653808,39.35810041427612,101.99604407653808,42.958100414276124,101.99604407653808,42.958100414276124C101.99604407653808,42.958100414276124,83.57744407653809,42.958100414276124,83.57744407653809,42.958100414276124C83.57744407653809,42.958100414276124,83.57744407653809,39.35810041427612,83.57744407653809,39.35810041427612Z" fill="#1890FF" fill-opacity="1"/></g></g></g></g></g></g></svg>